<mxfile host="app.diagrams.net" modified="2020-11-03T05:36:37.367Z" agent="5.0 (Windows NT 6.1; Win64; x64) AppleWebKit/537.36 (KHTML, like Gecko) Chrome/86.0.4240.111 Safari/537.36" etag="WKmCQMmN971Eum4M6Nm-" version="13.8.8" type="github">
  <diagram id="1Qh0_O5NEPmAaIYRWEkd" name="Page-1">
    <mxGraphModel dx="1102" dy="614" grid="1" gridSize="10" guides="1" tooltips="1" connect="1" arrows="1" fold="1" page="1" pageScale="1" pageWidth="850" pageHeight="1100" math="0" shadow="0">
      <root>
        <mxCell id="0" />
        <mxCell id="1" parent="0" />
        <mxCell id="0cgJH6OHKD3gMNL_w_Vk-1" value="&lt;font style=&quot;font-size: 20px&quot;&gt;Front &lt;/font&gt;&lt;font style=&quot;font-size: 20px&quot;&gt;End&lt;/font&gt;&lt;br&gt;&lt;font style=&quot;font-size: 20px&quot;&gt;Development&lt;br&gt;(What the user sees in Website)&lt;/font&gt;" style="rounded=1;whiteSpace=wrap;html=1;strokeWidth=3;" parent="1" vertex="1">
          <mxGeometry x="70" y="80" width="185" height="120" as="geometry" />
        </mxCell>
        <mxCell id="0cgJH6OHKD3gMNL_w_Vk-2" value="" style="endArrow=classic;html=1;strokeWidth=3;exitX=0.5;exitY=1;exitDx=0;exitDy=0;" parent="1" source="0cgJH6OHKD3gMNL_w_Vk-1" edge="1">
          <mxGeometry width="50" height="50" relative="1" as="geometry">
            <mxPoint x="140" y="320" as="sourcePoint" />
            <mxPoint x="60" y="340" as="targetPoint" />
          </mxGeometry>
        </mxCell>
        <mxCell id="0cgJH6OHKD3gMNL_w_Vk-3" value="" style="endArrow=classic;html=1;strokeWidth=3;exitX=0.553;exitY=1.017;exitDx=0;exitDy=0;exitPerimeter=0;" parent="1" source="0cgJH6OHKD3gMNL_w_Vk-1" edge="1">
          <mxGeometry width="50" height="50" relative="1" as="geometry">
            <mxPoint x="165" y="210" as="sourcePoint" />
            <mxPoint x="180" y="370" as="targetPoint" />
          </mxGeometry>
        </mxCell>
        <mxCell id="0cgJH6OHKD3gMNL_w_Vk-4" value="" style="endArrow=classic;html=1;strokeWidth=3;exitX=0.653;exitY=0.992;exitDx=0;exitDy=0;exitPerimeter=0;entryX=0.545;entryY=0.286;entryDx=0;entryDy=0;entryPerimeter=0;" parent="1" source="0cgJH6OHKD3gMNL_w_Vk-1" target="0cgJH6OHKD3gMNL_w_Vk-7" edge="1">
          <mxGeometry width="50" height="50" relative="1" as="geometry">
            <mxPoint x="175" y="220" as="sourcePoint" />
            <mxPoint x="260" y="340" as="targetPoint" />
          </mxGeometry>
        </mxCell>
        <mxCell id="0cgJH6OHKD3gMNL_w_Vk-5" value="&lt;font style=&quot;font-size: 20px&quot;&gt;HTML&lt;/font&gt;" style="text;html=1;strokeColor=none;fillColor=none;align=center;verticalAlign=middle;whiteSpace=wrap;rounded=0;" parent="1" vertex="1">
          <mxGeometry x="30" y="330" width="60" height="60" as="geometry" />
        </mxCell>
        <mxCell id="0cgJH6OHKD3gMNL_w_Vk-6" value="&lt;font style=&quot;font-size: 20px&quot;&gt;CSS&lt;/font&gt;" style="text;html=1;strokeColor=none;fillColor=none;align=center;verticalAlign=middle;whiteSpace=wrap;rounded=0;" parent="1" vertex="1">
          <mxGeometry x="150" y="360" width="60" height="60" as="geometry" />
        </mxCell>
        <mxCell id="0cgJH6OHKD3gMNL_w_Vk-7" value="&lt;span style=&quot;font-size: 20px&quot;&gt;Javascript&lt;/span&gt;" style="text;html=1;strokeColor=none;fillColor=none;align=center;verticalAlign=middle;whiteSpace=wrap;rounded=0;" parent="1" vertex="1">
          <mxGeometry x="255" y="330" width="110" height="70" as="geometry" />
        </mxCell>
        <mxCell id="0cgJH6OHKD3gMNL_w_Vk-10" value="&lt;font style=&quot;font-size: 20px&quot;&gt;Bootstrap&lt;/font&gt;" style="text;html=1;strokeColor=none;fillColor=none;align=center;verticalAlign=middle;whiteSpace=wrap;rounded=0;" parent="1" vertex="1">
          <mxGeometry x="20" y="455" width="120" height="50" as="geometry" />
        </mxCell>
        <mxCell id="0cgJH6OHKD3gMNL_w_Vk-11" value="" style="endArrow=classic;html=1;strokeWidth=3;exitX=0.327;exitY=1.029;exitDx=0;exitDy=0;exitPerimeter=0;" parent="1" source="0cgJH6OHKD3gMNL_w_Vk-7" edge="1">
          <mxGeometry width="50" height="50" relative="1" as="geometry">
            <mxPoint x="270" y="450" as="sourcePoint" />
            <mxPoint x="190" y="540" as="targetPoint" />
          </mxGeometry>
        </mxCell>
        <mxCell id="0cgJH6OHKD3gMNL_w_Vk-12" value="" style="endArrow=classic;html=1;strokeWidth=3;exitX=0.5;exitY=1;exitDx=0;exitDy=0;" parent="1" source="0cgJH6OHKD3gMNL_w_Vk-7" edge="1">
          <mxGeometry width="50" height="50" relative="1" as="geometry">
            <mxPoint x="280" y="410" as="sourcePoint" />
            <mxPoint x="250" y="550" as="targetPoint" />
          </mxGeometry>
        </mxCell>
        <mxCell id="0cgJH6OHKD3gMNL_w_Vk-13" value="" style="endArrow=classic;html=1;strokeWidth=3;exitX=0.627;exitY=1.043;exitDx=0;exitDy=0;exitPerimeter=0;" parent="1" source="0cgJH6OHKD3gMNL_w_Vk-7" edge="1">
          <mxGeometry width="50" height="50" relative="1" as="geometry">
            <mxPoint x="290" y="420" as="sourcePoint" />
            <mxPoint x="310" y="560" as="targetPoint" />
          </mxGeometry>
        </mxCell>
        <mxCell id="0cgJH6OHKD3gMNL_w_Vk-14" value="" style="endArrow=classic;html=1;strokeWidth=3;exitX=0.75;exitY=1;exitDx=0;exitDy=0;" parent="1" source="0cgJH6OHKD3gMNL_w_Vk-7" edge="1">
          <mxGeometry width="50" height="50" relative="1" as="geometry">
            <mxPoint x="304.05405405405406" y="420" as="sourcePoint" />
            <mxPoint x="380" y="540" as="targetPoint" />
          </mxGeometry>
        </mxCell>
        <mxCell id="0cgJH6OHKD3gMNL_w_Vk-15" value="" style="endArrow=classic;html=1;strokeWidth=3;exitX=0.864;exitY=1;exitDx=0;exitDy=0;exitPerimeter=0;" parent="1" source="0cgJH6OHKD3gMNL_w_Vk-7" edge="1">
          <mxGeometry width="50" height="50" relative="1" as="geometry">
            <mxPoint x="314.05405405405406" y="430" as="sourcePoint" />
            <mxPoint x="440" y="460" as="targetPoint" />
          </mxGeometry>
        </mxCell>
        <mxCell id="0cgJH6OHKD3gMNL_w_Vk-16" value="&lt;span style=&quot;font-size: 20px&quot;&gt;Angular&lt;/span&gt;" style="text;html=1;strokeColor=none;fillColor=none;align=center;verticalAlign=middle;whiteSpace=wrap;rounded=0;" parent="1" vertex="1">
          <mxGeometry x="140" y="520" width="80" height="60" as="geometry" />
        </mxCell>
        <mxCell id="0cgJH6OHKD3gMNL_w_Vk-17" value="&lt;font style=&quot;font-size: 20px&quot;&gt;React&lt;/font&gt;" style="text;html=1;strokeColor=none;fillColor=none;align=center;verticalAlign=middle;whiteSpace=wrap;rounded=0;" parent="1" vertex="1">
          <mxGeometry x="210" y="540" width="80" height="40" as="geometry" />
        </mxCell>
        <mxCell id="0cgJH6OHKD3gMNL_w_Vk-18" value="&lt;span style=&quot;font-size: 20px&quot;&gt;Vue&lt;/span&gt;" style="text;html=1;strokeColor=none;fillColor=none;align=center;verticalAlign=middle;whiteSpace=wrap;rounded=0;" parent="1" vertex="1">
          <mxGeometry x="290" y="550" width="40" height="40" as="geometry" />
        </mxCell>
        <mxCell id="0cgJH6OHKD3gMNL_w_Vk-19" value="&lt;span style=&quot;font-size: 20px&quot;&gt;JQuery&lt;/span&gt;" style="text;html=1;strokeColor=none;fillColor=none;align=center;verticalAlign=middle;whiteSpace=wrap;rounded=0;" parent="1" vertex="1">
          <mxGeometry x="425" y="455" width="70" height="45" as="geometry" />
        </mxCell>
        <mxCell id="0cgJH6OHKD3gMNL_w_Vk-20" value="&lt;span style=&quot;font-size: 20px&quot;&gt;Popperjs&lt;/span&gt;" style="text;html=1;strokeColor=none;fillColor=none;align=center;verticalAlign=middle;whiteSpace=wrap;rounded=0;" parent="1" vertex="1">
          <mxGeometry x="340" y="525" width="110" height="55" as="geometry" />
        </mxCell>
        <mxCell id="0cgJH6OHKD3gMNL_w_Vk-22" value="&lt;font style=&quot;font-size: 20px&quot;&gt;Back&amp;nbsp;&lt;/font&gt;&lt;font style=&quot;font-size: 20px&quot;&gt;End&lt;/font&gt;&lt;br&gt;&lt;font style=&quot;font-size: 20px&quot;&gt;Development&lt;br&gt;(This tells the HTML,CSS,JS what to do)&lt;/font&gt;" style="rounded=1;whiteSpace=wrap;html=1;strokeWidth=3;" parent="1" vertex="1">
          <mxGeometry x="510" y="80" width="150" height="130" as="geometry" />
        </mxCell>
        <mxCell id="0cgJH6OHKD3gMNL_w_Vk-25" value="" style="endArrow=classic;html=1;strokeWidth=3;" parent="1" edge="1">
          <mxGeometry width="50" height="50" relative="1" as="geometry">
            <mxPoint x="530" y="212" as="sourcePoint" />
            <mxPoint x="500" y="375" as="targetPoint" />
          </mxGeometry>
        </mxCell>
        <mxCell id="0cgJH6OHKD3gMNL_w_Vk-26" value="" style="endArrow=classic;html=1;strokeWidth=3;entryX=0.5;entryY=0.182;entryDx=0;entryDy=0;entryPerimeter=0;" parent="1" target="0cgJH6OHKD3gMNL_w_Vk-33" edge="1">
          <mxGeometry width="50" height="50" relative="1" as="geometry">
            <mxPoint x="550" y="211" as="sourcePoint" />
            <mxPoint x="590" y="410" as="targetPoint" />
          </mxGeometry>
        </mxCell>
        <mxCell id="0cgJH6OHKD3gMNL_w_Vk-27" value="" style="endArrow=classic;html=1;strokeWidth=3;exitX=0.5;exitY=1;exitDx=0;exitDy=0;" parent="1" source="0cgJH6OHKD3gMNL_w_Vk-22" edge="1">
          <mxGeometry width="50" height="50" relative="1" as="geometry">
            <mxPoint x="591" y="212" as="sourcePoint" />
            <mxPoint x="660" y="390" as="targetPoint" />
          </mxGeometry>
        </mxCell>
        <mxCell id="0cgJH6OHKD3gMNL_w_Vk-28" value="" style="endArrow=classic;html=1;strokeWidth=3;exitX=0.687;exitY=1;exitDx=0;exitDy=0;exitPerimeter=0;" parent="1" source="0cgJH6OHKD3gMNL_w_Vk-22" edge="1">
          <mxGeometry width="50" height="50" relative="1" as="geometry">
            <mxPoint x="577.5" y="260" as="sourcePoint" />
            <mxPoint x="720" y="370" as="targetPoint" />
          </mxGeometry>
        </mxCell>
        <mxCell id="0cgJH6OHKD3gMNL_w_Vk-31" value="&lt;span style=&quot;font-size: 20px&quot;&gt;Django&lt;br&gt;(Python)&lt;br&gt;&lt;/span&gt;" style="text;html=1;strokeColor=none;fillColor=none;align=center;verticalAlign=middle;whiteSpace=wrap;rounded=0;" parent="1" vertex="1">
          <mxGeometry x="460" y="370" width="80" height="60" as="geometry" />
        </mxCell>
        <mxCell id="0cgJH6OHKD3gMNL_w_Vk-32" style="edgeStyle=orthogonalEdgeStyle;rounded=0;orthogonalLoop=1;jettySize=auto;html=1;exitX=0.5;exitY=1;exitDx=0;exitDy=0;strokeWidth=3;" parent="1" source="0cgJH6OHKD3gMNL_w_Vk-31" target="0cgJH6OHKD3gMNL_w_Vk-31" edge="1">
          <mxGeometry relative="1" as="geometry" />
        </mxCell>
        <mxCell id="0cgJH6OHKD3gMNL_w_Vk-33" value="&lt;span style=&quot;font-size: 20px&quot;&gt;Spring Boot&lt;br&gt;(Java)&lt;br&gt;&lt;/span&gt;" style="text;html=1;strokeColor=none;fillColor=none;align=center;verticalAlign=middle;whiteSpace=wrap;rounded=0;" parent="1" vertex="1">
          <mxGeometry x="530" y="410" width="130" height="110" as="geometry" />
        </mxCell>
        <mxCell id="0cgJH6OHKD3gMNL_w_Vk-34" value="&lt;font style=&quot;font-size: 20px&quot;&gt;PHP&lt;/font&gt;" style="text;html=1;strokeColor=none;fillColor=none;align=center;verticalAlign=middle;whiteSpace=wrap;rounded=0;" parent="1" vertex="1">
          <mxGeometry x="630" y="380" width="60" height="50" as="geometry" />
        </mxCell>
        <mxCell id="0cgJH6OHKD3gMNL_w_Vk-35" value="&lt;span style=&quot;font-size: 20px&quot;&gt;Nodejs&lt;br&gt;(Javascript)&lt;br&gt;&lt;/span&gt;" style="text;html=1;strokeColor=none;fillColor=none;align=center;verticalAlign=middle;whiteSpace=wrap;rounded=0;" parent="1" vertex="1">
          <mxGeometry x="680" y="345" width="120" height="100" as="geometry" />
        </mxCell>
        <mxCell id="0cgJH6OHKD3gMNL_w_Vk-36" value="&lt;font style=&quot;font-size: 20px&quot;&gt;&amp;nbsp;DataBase&lt;/font&gt;" style="rounded=1;whiteSpace=wrap;html=1;strokeWidth=3;" parent="1" vertex="1">
          <mxGeometry x="900" y="85" width="150" height="120" as="geometry" />
        </mxCell>
        <mxCell id="0cgJH6OHKD3gMNL_w_Vk-37" value="" style="endArrow=classic;html=1;strokeWidth=3;" parent="1" edge="1">
          <mxGeometry width="50" height="50" relative="1" as="geometry">
            <mxPoint x="940" y="213" as="sourcePoint" />
            <mxPoint x="900" y="380" as="targetPoint" />
          </mxGeometry>
        </mxCell>
        <mxCell id="0cgJH6OHKD3gMNL_w_Vk-38" value="" style="endArrow=classic;html=1;strokeWidth=3;exitX=0.5;exitY=1;exitDx=0;exitDy=0;" parent="1" source="0cgJH6OHKD3gMNL_w_Vk-36" edge="1">
          <mxGeometry width="50" height="50" relative="1" as="geometry">
            <mxPoint x="956.95" y="223" as="sourcePoint" />
            <mxPoint x="990" y="400" as="targetPoint" />
          </mxGeometry>
        </mxCell>
        <mxCell id="0cgJH6OHKD3gMNL_w_Vk-39" value="" style="endArrow=classic;html=1;strokeWidth=3;exitX=0.75;exitY=1;exitDx=0;exitDy=0;" parent="1" source="0cgJH6OHKD3gMNL_w_Vk-36" edge="1">
          <mxGeometry width="50" height="50" relative="1" as="geometry">
            <mxPoint x="966.95" y="233" as="sourcePoint" />
            <mxPoint x="1080" y="370" as="targetPoint" />
          </mxGeometry>
        </mxCell>
        <mxCell id="0cgJH6OHKD3gMNL_w_Vk-40" value="&lt;span style=&quot;font-size: 20px&quot;&gt;MySQL&lt;/span&gt;" style="text;html=1;strokeColor=none;fillColor=none;align=center;verticalAlign=middle;whiteSpace=wrap;rounded=0;" parent="1" vertex="1">
          <mxGeometry x="860" y="370" width="70" height="40" as="geometry" />
        </mxCell>
        <mxCell id="0cgJH6OHKD3gMNL_w_Vk-41" value="&lt;span style=&quot;font-size: 20px&quot;&gt;MongoDB&lt;/span&gt;" style="text;html=1;strokeColor=none;fillColor=none;align=center;verticalAlign=middle;whiteSpace=wrap;rounded=0;" parent="1" vertex="1">
          <mxGeometry x="950" y="380" width="100" height="60" as="geometry" />
        </mxCell>
        <mxCell id="0cgJH6OHKD3gMNL_w_Vk-42" value="&lt;span style=&quot;font-size: 20px&quot;&gt;Sqlite&lt;/span&gt;" style="text;html=1;strokeColor=none;fillColor=none;align=center;verticalAlign=middle;whiteSpace=wrap;rounded=0;" parent="1" vertex="1">
          <mxGeometry x="1050" y="350" width="100" height="60" as="geometry" />
        </mxCell>
        <mxCell id="0cgJH6OHKD3gMNL_w_Vk-45" value="" style="endArrow=classic;html=1;strokeWidth=3;exitX=0.5;exitY=1;exitDx=0;exitDy=0;" parent="1" source="0cgJH6OHKD3gMNL_w_Vk-40" edge="1">
          <mxGeometry width="50" height="50" relative="1" as="geometry">
            <mxPoint x="890" y="550" as="sourcePoint" />
            <mxPoint x="970" y="530" as="targetPoint" />
          </mxGeometry>
        </mxCell>
        <mxCell id="0cgJH6OHKD3gMNL_w_Vk-47" value="" style="endArrow=classic;html=1;strokeWidth=3;exitX=0.5;exitY=1;exitDx=0;exitDy=0;" parent="1" source="0cgJH6OHKD3gMNL_w_Vk-41" edge="1">
          <mxGeometry width="50" height="50" relative="1" as="geometry">
            <mxPoint x="905" y="420" as="sourcePoint" />
            <mxPoint x="1000" y="530" as="targetPoint" />
          </mxGeometry>
        </mxCell>
        <mxCell id="0cgJH6OHKD3gMNL_w_Vk-48" value="" style="endArrow=classic;html=1;strokeWidth=3;exitX=0.5;exitY=1;exitDx=0;exitDy=0;" parent="1" source="0cgJH6OHKD3gMNL_w_Vk-42" edge="1">
          <mxGeometry width="50" height="50" relative="1" as="geometry">
            <mxPoint x="1010" y="450" as="sourcePoint" />
            <mxPoint x="1030" y="530" as="targetPoint" />
          </mxGeometry>
        </mxCell>
        <mxCell id="0cgJH6OHKD3gMNL_w_Vk-49" value="&lt;font style=&quot;font-size: 20px&quot;&gt;Query Languages&lt;/font&gt;" style="text;html=1;strokeColor=none;fillColor=none;align=center;verticalAlign=middle;whiteSpace=wrap;rounded=0;" parent="1" vertex="1">
          <mxGeometry x="930" y="520" width="140" height="80" as="geometry" />
        </mxCell>
        <mxCell id="0cgJH6OHKD3gMNL_w_Vk-51" value="" style="endArrow=classic;startArrow=classic;html=1;strokeWidth=3;exitX=1;exitY=0.5;exitDx=0;exitDy=0;" parent="1" source="0cgJH6OHKD3gMNL_w_Vk-1" edge="1">
          <mxGeometry width="50" height="50" relative="1" as="geometry">
            <mxPoint x="330" y="170" as="sourcePoint" />
            <mxPoint x="510" y="140" as="targetPoint" />
          </mxGeometry>
        </mxCell>
        <mxCell id="0cgJH6OHKD3gMNL_w_Vk-52" value="" style="endArrow=classic;startArrow=classic;html=1;strokeWidth=3;exitX=1;exitY=0.5;exitDx=0;exitDy=0;entryX=0;entryY=0.5;entryDx=0;entryDy=0;" parent="1" source="0cgJH6OHKD3gMNL_w_Vk-22" target="0cgJH6OHKD3gMNL_w_Vk-36" edge="1">
          <mxGeometry width="50" height="50" relative="1" as="geometry">
            <mxPoint x="240" y="149.9999999999999" as="sourcePoint" />
            <mxPoint x="690" y="180" as="targetPoint" />
          </mxGeometry>
        </mxCell>
        <mxCell id="0cgJH6OHKD3gMNL_w_Vk-53" value="" style="endArrow=classic;startArrow=classic;html=1;strokeWidth=3;" parent="1" edge="1">
          <mxGeometry width="50" height="50" relative="1" as="geometry">
            <mxPoint x="40" y="630" as="sourcePoint" />
            <mxPoint x="480" y="630" as="targetPoint" />
            <Array as="points">
              <mxPoint x="40" y="720" />
              <mxPoint x="480" y="720" />
            </Array>
          </mxGeometry>
        </mxCell>
        <mxCell id="0cgJH6OHKD3gMNL_w_Vk-54" value="" style="endArrow=classic;html=1;strokeWidth=3;" parent="1" edge="1">
          <mxGeometry width="50" height="50" relative="1" as="geometry">
            <mxPoint x="250" y="720" as="sourcePoint" />
            <mxPoint x="250" y="850" as="targetPoint" />
          </mxGeometry>
        </mxCell>
        <mxCell id="0cgJH6OHKD3gMNL_w_Vk-56" value="" style="endArrow=classic;startArrow=classic;html=1;strokeWidth=3;" parent="1" edge="1">
          <mxGeometry width="50" height="50" relative="1" as="geometry">
            <mxPoint x="500" y="630" as="sourcePoint" />
            <mxPoint x="1140" y="590" as="targetPoint" />
            <Array as="points">
              <mxPoint x="500" y="720" />
              <mxPoint x="1140" y="720" />
            </Array>
          </mxGeometry>
        </mxCell>
        <mxCell id="0cgJH6OHKD3gMNL_w_Vk-57" value="" style="endArrow=classic;html=1;strokeWidth=3;" parent="1" edge="1">
          <mxGeometry width="50" height="50" relative="1" as="geometry">
            <mxPoint x="820" y="720" as="sourcePoint" />
            <mxPoint x="820" y="860" as="targetPoint" />
          </mxGeometry>
        </mxCell>
        <mxCell id="0cgJH6OHKD3gMNL_w_Vk-58" value="&lt;span style=&quot;font-size: 20px&quot;&gt;Front-End Developer!&lt;/span&gt;" style="text;html=1;strokeColor=none;fillColor=none;align=center;verticalAlign=middle;whiteSpace=wrap;rounded=0;" parent="1" vertex="1">
          <mxGeometry x="170" y="850" width="160" height="70" as="geometry" />
        </mxCell>
        <mxCell id="0cgJH6OHKD3gMNL_w_Vk-59" value="&lt;span style=&quot;font-size: 20px&quot;&gt;Back-End Developer!&lt;/span&gt;" style="text;html=1;strokeColor=none;fillColor=none;align=center;verticalAlign=middle;whiteSpace=wrap;rounded=0;" parent="1" vertex="1">
          <mxGeometry x="740" y="860" width="160" height="70" as="geometry" />
        </mxCell>
        <mxCell id="0cgJH6OHKD3gMNL_w_Vk-60" value="" style="endArrow=classic;startArrow=classic;html=1;strokeWidth=3;exitX=1;exitY=0.5;exitDx=0;exitDy=0;entryX=0.013;entryY=0.357;entryDx=0;entryDy=0;entryPerimeter=0;" parent="1" source="0cgJH6OHKD3gMNL_w_Vk-58" target="0cgJH6OHKD3gMNL_w_Vk-59" edge="1">
          <mxGeometry width="50" height="50" relative="1" as="geometry">
            <mxPoint x="480" y="920" as="sourcePoint" />
            <mxPoint x="530" y="870" as="targetPoint" />
          </mxGeometry>
        </mxCell>
        <mxCell id="0cgJH6OHKD3gMNL_w_Vk-61" value="" style="endArrow=classic;html=1;strokeWidth=3;" parent="1" edge="1">
          <mxGeometry width="50" height="50" relative="1" as="geometry">
            <mxPoint x="530" y="890" as="sourcePoint" />
            <mxPoint x="530" y="970" as="targetPoint" />
          </mxGeometry>
        </mxCell>
        <mxCell id="0cgJH6OHKD3gMNL_w_Vk-62" value="&lt;span style=&quot;font-size: 20px&quot;&gt;Full-Stack Developer!!!&lt;/span&gt;" style="text;html=1;strokeColor=none;fillColor=none;align=center;verticalAlign=middle;whiteSpace=wrap;rounded=0;" parent="1" vertex="1">
          <mxGeometry x="460" y="950" width="130" height="90" as="geometry" />
        </mxCell>
        <mxCell id="M9klIhJZnBZnBbL5dKBW-1" value="" style="endArrow=classic;html=1;strokeWidth=3;" parent="1" source="0cgJH6OHKD3gMNL_w_Vk-5" target="0cgJH6OHKD3gMNL_w_Vk-10" edge="1">
          <mxGeometry width="50" height="50" relative="1" as="geometry">
            <mxPoint x="40" y="580" as="sourcePoint" />
            <mxPoint x="90" y="530" as="targetPoint" />
          </mxGeometry>
        </mxCell>
        <mxCell id="M9klIhJZnBZnBbL5dKBW-2" value="" style="endArrow=classic;html=1;strokeWidth=3;exitX=0;exitY=0.75;exitDx=0;exitDy=0;" parent="1" source="0cgJH6OHKD3gMNL_w_Vk-6" target="0cgJH6OHKD3gMNL_w_Vk-10" edge="1">
          <mxGeometry width="50" height="50" relative="1" as="geometry">
            <mxPoint x="89.09090909090901" y="400" as="sourcePoint" />
            <mxPoint x="140" y="450" as="targetPoint" />
          </mxGeometry>
        </mxCell>
        <mxCell id="M9klIhJZnBZnBbL5dKBW-3" value="" style="endArrow=classic;html=1;strokeWidth=3;entryX=1;entryY=0.5;entryDx=0;entryDy=0;" parent="1" source="0cgJH6OHKD3gMNL_w_Vk-7" target="0cgJH6OHKD3gMNL_w_Vk-10" edge="1">
          <mxGeometry width="50" height="50" relative="1" as="geometry">
            <mxPoint x="110" y="560" as="sourcePoint" />
            <mxPoint x="160" y="510" as="targetPoint" />
          </mxGeometry>
        </mxCell>
      </root>
    </mxGraphModel>
  </diagram>
</mxfile>
